<svg width="520" height="340" viewBox="0 0 520 340" fill="none" xmlns="http://www.w3.org/2000/svg">
  <rect x="24" y="18" width="472" height="304" rx="28" fill="#FFF7B0"/>
  <rect x="24" y="18" width="472" height="304" rx="28" stroke="#E5D26A" stroke-width="2"/>
  <path d="M80 98 C132 66, 192 66, 244 98" stroke="#111827" stroke-opacity="0.55" stroke-width="8" stroke-linecap="round"/>
  <path d="M80 146 C160 110, 216 110, 296 146" stroke="#111827" stroke-opacity="0.45" stroke-width="8" stroke-linecap="round"/>
  <path d="M80 194 C140 170, 210 170, 270 194" stroke="#111827" stroke-opacity="0.35" stroke-width="8" stroke-linecap="round"/>
  <rect x="80" y="232" width="180" height="44" rx="16" fill="#1D4ED8" fill-opacity="0.12"/>
  <rect x="92" y="244" width="64" height="20" rx="10" fill="#1D4ED8" fill-opacity="0.35"/>
  <rect x="168" y="244" width="80" height="20" rx="10" fill="#1D4ED8" fill-opacity="0.22"/>
  <circle cx="430" cy="90" r="48" fill="#111827" fill-opacity="0.06"/>
  <path d="M430 64 v26 l16 10" stroke="#111827" stroke-opacity="0.5" stroke-width="7" stroke-linecap="round" stroke-linejoin="round"/>
  <circle cx="430" cy="90" r="36" stroke="#111827" stroke-opacity="0.25" stroke-width="3"/>
</svg>

