<?xml version="1.0" encoding="UTF-8"?>
<svg version="1.1" xmlns="http://www.w3.org/2000/svg" width="234" height="215">
<path d="M0 0 C2.1875 1.1875 2.1875 1.1875 4.1875 4.1875 C4.64392994 7.65138134 4.55780492 11.13420754 4.5625 14.625 C4.58699219 15.57955078 4.61148438 16.53410156 4.63671875 17.51757812 C4.66594615 24.47856952 4.66594615 24.47856952 2.4765625 27.72265625 C-2.51262623 30.91539648 -5.94473094 31.4231526 -11.875 31 C-12.90633057 30.92652344 -12.90633057 30.92652344 -13.95849609 30.8515625 C-20.51611504 30.32613565 -26.9905384 29.3172578 -33.48364258 28.28125 C-40.584589 27.16444908 -47.62867725 26.53241864 -54.8125 26.1875 C-54.50262383 28.43786286 -54.18950182 30.68777894 -53.875 32.9375 C-53.70097656 34.19046875 -53.52695313 35.4434375 -53.34765625 36.734375 C-52.90282478 40.02244902 -52.90282478 40.02244902 -52.18359375 42.515625 C-51.8125 44.1875 -51.8125 44.1875 -52.8125 46.1875 C-54.7925 46.1875 -56.7725 46.1875 -58.8125 46.1875 C-59.02856009 49.29102879 -59.02856009 49.29102879 -57.375 52.1875 C-54.74408055 58.08827648 -54.22003042 64.54417419 -55.625 70.8125 C-56.8125 73.1875 -56.8125 73.1875 -58.8125 74.1875 C-62.43105803 74.48088566 -66.05843219 74.46541549 -69.6875 74.5 C-71.19763672 74.54350586 -71.19763672 74.54350586 -72.73828125 74.58789062 C-80.16696634 74.65201606 -80.16696634 74.65201606 -83.4453125 72.29296875 C-89.4450609 63.05335621 -85.57418221 47.0764237 -83.95678711 36.7734375 C-82.82862666 29.58116269 -82.16714501 22.4638373 -81.8125 15.1875 C-83.47539063 15.52974609 -83.47539063 15.52974609 -85.171875 15.87890625 C-86.63532738 16.16972051 -88.09887411 16.46006027 -89.5625 16.75 C-90.29210937 16.90146484 -91.02171875 17.05292969 -91.7734375 17.20898438 C-95.47807073 17.93307178 -98.20572322 18.28567231 -101.8125 17.1875 C-101.4825 14.8775 -101.1525 12.5675 -100.8125 10.1875 C-93.61616176 9.49744017 -86.41475441 9.03369543 -79.1875 8.875 C-78.50107422 8.84535156 -77.81464844 8.81570312 -77.10742188 8.78515625 C-74.13053032 8.7495404 -72.29384468 8.7910985 -69.953125 10.71875 C-68.41435423 14.04924016 -67.77141816 17.4069127 -67.1875 21 C-67.00574219 22.02963867 -67.00574219 22.02963867 -66.8203125 23.08007812 C-66.06186203 27.4370463 -65.4194539 31.80712517 -64.8125 36.1875 C-64.1525 36.1875 -63.4925 36.1875 -62.8125 36.1875 C-62.1525 38.1675 -61.4925 40.1475 -60.8125 42.1875 C-60.82821045 41.44588623 -60.8439209 40.70427246 -60.86010742 39.94018555 C-60.92240714 36.58520104 -60.96147507 33.23033814 -61 29.875 C-61.02513672 28.70775391 -61.05027344 27.54050781 -61.07617188 26.33789062 C-61.08583984 25.21962891 -61.09550781 24.10136719 -61.10546875 22.94921875 C-61.1211792 21.91756592 -61.13688965 20.88591309 -61.15307617 19.82299805 C-60.8125 17.1875 -60.8125 17.1875 -59.60546875 15.41455078 C-57.37441009 13.8876852 -55.47181481 13.38003975 -52.83203125 12.79296875 C-51.84009766 12.56262939 -50.84816406 12.33229004 -49.82617188 12.0949707 C-48.76978516 11.85738037 -47.71339844 11.61979004 -46.625 11.375 C-36.63341348 9.01222569 -27.31895 6.04409392 -17.8125 2.1875 C-16.41290571 1.62848316 -15.01048144 1.0765053 -13.60546875 0.53125 C-12.96891357 0.28181641 -12.3323584 0.03238281 -11.67651367 -0.22460938 C-7.63234505 -1.50009831 -4.00870036 -1.15806899 0 0 Z " fill="#FDFDFD" transform="translate(180.8125,101.8125)"/>
<path d="M0 0 C2.5 0.125 2.5 0.125 3.5 1.125 C4.07373722 5.43865388 4.27002019 9.78141915 4.5 14.125 C4.5407666 14.82898926 4.5815332 15.53297852 4.62353516 16.25830078 C4.73727017 18.42217 4.81140705 20.58412806 4.875 22.75 C4.91310791 23.43650635 4.95121582 24.1230127 4.99047852 24.83032227 C5.0234375 26.7890625 5.0234375 26.7890625 4.5 30.125 C0.71305778 33.65494414 -4.63553621 34.23582835 -9.5625 35.3125 C-20.93772052 37.95593292 -32.03869463 41.89434731 -42.5 47.125 C-44.64404169 47.22206713 -46.79126751 47.25478536 -48.9375 47.25 C-50.66806641 47.25386719 -50.66806641 47.25386719 -52.43359375 47.2578125 C-55.5 47.125 -55.5 47.125 -58.5 46.125 C-61.42452933 41.69926542 -60.90609812 36.80600692 -60.9375 31.6875 C-60.97037109 30.74583984 -61.00324219 29.80417969 -61.03710938 28.83398438 C-61.07392894 24.09095454 -61.08141151 21.87468996 -58.09765625 18.02734375 C-53.90607167 14.95771715 -51.21680668 15.06113032 -46.1875 15.375 C-45.44201904 15.41947266 -44.69653809 15.46394531 -43.9284668 15.50976562 C-36.94124178 15.98693496 -30.05706836 16.98018191 -23.13671875 18.03149414 C-15.93139584 19.11215875 -8.78111242 19.77012225 -1.5 20.125 C-1.644375 19.17238281 -1.78875 18.21976563 -1.9375 17.23828125 C-2.123125 15.98402344 -2.30875 14.72976562 -2.5 13.4375 C-2.685625 12.19613281 -2.87125 10.95476562 -3.0625 9.67578125 C-3.42187574 6.75906209 -3.67389939 4.05411786 -3.5 1.125 C-2.5 0.125 -2.5 0.125 0 0 Z " fill="#FDFDFD" transform="translate(111.5,69.875)"/>
<path d="M0 0 C0.85464844 -0.02900391 1.70929688 -0.05800781 2.58984375 -0.08789062 C6.2839243 -0.1253501 8.74762958 -0.1315414 11.96875 1.76953125 C16.69508302 9.61862002 15.38303941 17.7165113 14.1875 26.4375 C13.9719043 28.14873047 13.9719043 28.14873047 13.75195312 29.89453125 C13.18770977 34.3311845 12.58154955 38.75896849 11.9296875 43.18359375 C11.46919249 46.53683466 11.18110123 49.87438294 10.9375 53.25 C10.85371094 54.39339844 10.76992187 55.53679687 10.68359375 56.71484375 C10.59271484 58.00068359 10.59271484 58.00068359 10.5 59.3125 C11.35722656 59.168125 12.21445313 59.02375 13.09765625 58.875 C18.95609958 57.92391112 24.56182678 57.0363059 30.5 57.3125 C30.5 59.6225 30.5 61.9325 30.5 64.3125 C25.04894822 66.12951726 19.20775856 66.00138528 13.5 66.3125 C12.43523437 66.37953125 11.37046875 66.4465625 10.2734375 66.515625 C9.31695312 66.55171875 8.36046875 66.5878125 7.375 66.625 C6.10269531 66.68107422 6.10269531 66.68107422 4.8046875 66.73828125 C1.41543821 66.1121318 0.50481856 65.13785611 -1.5 62.3125 C-2.61253835 59.01475407 -3.3019147 55.6561697 -4 52.25 C-5.9717464 43.36470946 -8.31034277 35.13515246 -12.08203125 26.828125 C-18.35641601 12.98272256 -18.35641601 12.98272256 -15.25 4.375 C-13.5 1.3125 -13.5 1.3125 -11.66601562 0.63598633 C-7.78248038 0.05599487 -3.92059311 0.0443506 0 0 Z " fill="#FDFDFD" transform="translate(126.5,41.6875)"/>
<path d="M0 0 C2.01973922 0.78471835 4.07761214 1.47016076 6.140625 2.1328125 C16.63471285 5.65753474 16.63471285 5.65753474 18.79296875 9.31640625 C19.27840925 11.60337038 19.50193245 13.59517361 19.3828125 15.92578125 C12.9184684 15.18284123 6.53833811 14.12673768 0.1328125 12.98828125 C-7.78005651 11.57298773 -7.78005651 11.57298773 -15.71484375 10.2890625 C-16.77574219 10.12792969 -17.83664063 9.96679688 -18.9296875 9.80078125 C-19.81269531 9.67445312 -20.69570312 9.548125 -21.60546875 9.41796875 C-23.6171875 8.92578125 -23.6171875 8.92578125 -25.6171875 6.92578125 C-25.47941876 1.96610665 -22.89649955 -0.63874899 -19.6171875 -4.07421875 C-13.52718667 -6.10421903 -5.75686573 -2.34851217 0 0 Z " fill="#FCFCFC" transform="translate(87.6171875,70.07421875)"/>
<path d="M0 0 C1.98 0 3.96 0 6 0 C6.26399141 7.0170619 5.24360187 13.59321051 4.0625 20.5 C3.69797011 22.67687461 3.33466131 24.8539541 2.97265625 27.03125 C2.80064697 28.05541016 2.6286377 29.07957031 2.45141602 30.13476562 C2.05830165 32.62994692 1.74208355 35.11454959 1.46875 37.625 C0.99202464 41.05742259 0.36679261 42.53030336 -2 45 C-6.93317299 44.56472003 -9.68649274 42.6217405 -13 39 C-13.77324029 32.13938765 -11.86010048 26.93682883 -9.3125 20.625 C-8.97283203 19.74328125 -8.63316406 18.8615625 -8.28320312 17.953125 C-5.86412359 11.78560259 -3.05265091 5.87748024 0 0 Z " fill="#FBFCFC" transform="translate(88,120)"/>
<path d="M0 0 C6.53240741 2.68981481 6.53240741 2.68981481 8.125 5.875 C8.61978575 12.50660599 7.23271693 17.56209987 4.9375 23.75 C4.62087402 24.62825439 4.30424805 25.50650879 3.97802734 26.41137695 C-1.59868249 41.59868249 -1.59868249 41.59868249 -4.875 44.875 C-6.87458364 44.91580783 -8.87545254 44.91754356 -10.875 44.875 C-10.46740807 37.45401597 -9.48648483 30.25123954 -8.03198242 22.9699707 C-6.89504101 17.22604078 -6.14317126 11.49000855 -5.5 5.66796875 C-4.76128241 2.36682452 -3.73878196 -0.24925213 0 0 Z " fill="#FCFCFC" transform="translate(152.875,53.125)"/>
<path d="M0 0 C2.13424192 0.23713799 4.26843382 0.47473661 6.40234375 0.71484375 C8.12271648 0.9036967 9.84410739 1.08351139 11.56640625 1.25390625 C12.77103516 1.37572266 12.77103516 1.37572266 14 1.5 C14.7425 1.5721875 15.485 1.644375 16.25 1.71875 C18 2 18 2 19 3 C20.50952714 3.27261304 22.02903198 3.49054139 23.55078125 3.68359375 C24.47697266 3.80669922 25.40316406 3.92980469 26.35742188 4.05664062 C28.31545288 4.30899756 30.27378537 4.55902705 32.23242188 4.80664062 C33.62750977 4.99323242 33.62750977 4.99323242 35.05078125 5.18359375 C35.90325439 5.29243896 36.75572754 5.40128418 37.6340332 5.51342773 C40.04225874 6.00869071 41.864494 6.80134125 44 8 C44 9.65 44 11.3 44 13 C43.34 13 42.68 13 42 13 C41.566875 14.2065625 41.566875 14.2065625 41.125 15.4375 C40 18 40 18 38 19 C31.12812977 19.55717867 25.89361078 17.90689708 19.5 15.5 C18.5821875 15.16613281 17.664375 14.83226562 16.71875 14.48828125 C14.47472914 13.67014864 12.2356748 12.84061372 10 12 C10 11.34 10 10.68 10 10 C9.0925 9.9175 8.185 9.835 7.25 9.75 C3.52591821 8.89059651 2.22234619 8.07709473 0 5 C-0.25 2.25 -0.25 2.25 0 0 Z " fill="#FBFBFB" transform="translate(130,133)"/>
<path d="M0 0 C2.90545644 4.35818466 2.36810407 8.31037453 2.375 13.4375 C2.39949219 14.39205078 2.42398438 15.34660156 2.44921875 16.33007812 C2.47863624 23.3363447 2.47863624 23.3363447 0.140625 26.578125 C-2.20011138 28.1329207 -4.29738132 29.21766301 -7 30 C-7.66 29.67 -8.32 29.34 -9 29 C-9 28.34 -9 27.68 -9 27 C-7.8553125 26.7834375 -7.8553125 26.7834375 -6.6875 26.5625 C-3.91827092 26.0367406 -3.91827092 26.0367406 -1 25 C-1 17.41 -1 9.82 -1 2 C-8.50408513 1.65097278 -13.89151955 1.86091844 -20.73046875 4.9765625 C-23.75593049 6.34088432 -26.79386198 7.16361617 -30 8 C-29 5 -29 5 -26.19921875 3.4296875 C-25.04035156 2.91664062 -23.88148438 2.40359375 -22.6875 1.875 C-21.53636719 1.35679688 -20.38523438 0.83859375 -19.19921875 0.3046875 C-12.8018276 -2.30426078 -6.36499056 -3.45528059 0 0 Z " fill="#F1F2F4" transform="translate(183,103)"/>
<path d="M0 0 C0.85464844 -0.02900391 1.70929688 -0.05800781 2.58984375 -0.08789062 C6.2839243 -0.1253501 8.74762958 -0.1315414 11.96875 1.76953125 C16.69154921 9.61275136 15.40644898 17.77721174 14.25 26.5 C14.11464844 27.64919922 13.97929687 28.79839844 13.83984375 29.98242188 C13.17409652 35.35506421 12.33416295 40.19822646 10.5 45.3125 C10.17 45.3125 9.84 45.3125 9.5 45.3125 C9.375 38.5625 9.375 38.5625 10.5 36.3125 C10.5 35.19875 10.5 34.085 10.5 32.9375 C10.5 29.3125 10.5 29.3125 11 27.375 C11.65706668 25.01830674 11.65706668 25.01830674 11.5 21.3125 C11.5 17.3125 11.5 17.3125 12.08984375 15.359375 C12.62652442 12.68108291 11.99797053 11.10697984 11.0625 8.5625 C10.77503906 7.76328125 10.48757812 6.9640625 10.19140625 6.140625 C9.84916016 5.23570313 9.84916016 5.23570313 9.5 4.3125 C6.08340509 4.25433377 2.66693795 4.21884805 -0.75 4.1875 C-1.71808594 4.17074219 -2.68617187 4.15398438 -3.68359375 4.13671875 C-4.61816406 4.13027344 -5.55273438 4.12382813 -6.515625 4.1171875 C-7.80388184 4.10147705 -7.80388184 4.10147705 -9.11816406 4.08544922 C-11.67903596 4.32956677 -13.29511029 5.02259488 -15.5 6.3125 C-14.75 3.875 -14.75 3.875 -13.5 1.3125 C-9.18164564 -0.23319482 -4.53016662 0.05124623 0 0 Z " fill="#F2F3F3" transform="translate(126.5,41.6875)"/>
<path d="M0 0 C0.96550781 0.00451172 1.93101563 0.00902344 2.92578125 0.01367188 C5.28392089 0.02534583 7.64192602 0.04171979 10 0.0625 C10.66 1.7125 11.32 3.3625 12 5.0625 C11.505 4.7325 11.01 4.4025 10.5 4.0625 C6.90909106 2.62613642 3.85543873 2.93398538 0 3.0625 C0.33 3.7225 0.66 4.3825 1 5.0625 C-5.56599751 7.28376299 -12.0207496 9.00610202 -19 9.0625 C-19.33 8.7325 -19.66 8.4025 -20 8.0625 C-19.71269945 5.72305264 -19.38063221 3.3885857 -19 1.0625 C-12.62542652 0.10781742 -6.43938347 -0.0577324 0 0 Z " fill="#F5F6F5" transform="translate(99,110.9375)"/>
<path d="M0 0 C0.66 0.33 1.32 0.66 2 1 C2.125 3.875 2.125 3.875 2 7 C0 9 0 9 -2.0390625 9.265625 C-11.15848113 9.21052277 -20.08840816 7.95664392 -29.10253906 6.70898438 C-37.43146908 5.56633135 -45.57728015 4.67879458 -54 5 C-50.68345752 1.68345752 -47.10780149 1.82243508 -42.5625 1.75 C-35.54583088 1.78950827 -28.76528049 2.79204877 -21.83935547 3.85571289 C-14.56326217 4.96409255 -7.35548039 5.64149759 0 6 C0 4.02 0 2.04 0 0 Z " fill="#EDEFEF" transform="translate(110,84)"/>
<path d="M0 0 C0.66 0 1.32 0 2 0 C2.13494246 2.6058889 2.23402299 5.20482111 2.3125 7.8125 C2.35439453 8.55048828 2.39628906 9.28847656 2.43945312 10.04882812 C2.48828125 12.20703125 2.48828125 12.20703125 2 16 C-1.78014576 19.66442701 -7.6737616 20.34202105 -12.6875 21.5 C-14.47828534 21.92923797 -16.26865608 22.3602096 -18.05859375 22.79296875 C-18.91179199 22.99841309 -19.76499023 23.20385742 -20.64404297 23.41552734 C-24.81570712 24.45044589 -28.90372241 25.70284543 -33 27 C-33 25.68 -33 24.36 -33 23 C-32.18535278 22.82803101 -32.18535278 22.82803101 -31.35424805 22.65258789 C-24.98428712 21.27682912 -18.74640804 19.57043909 -12.48632812 17.76757812 C-11.73416016 17.55423828 -10.98199219 17.34089844 -10.20703125 17.12109375 C-9.5416333 16.9295874 -8.87623535 16.73808105 -8.19067383 16.54077148 C-5.49352397 15.87497555 -2.74031197 15.45671866 0 15 C0 10.05 0 5.1 0 0 Z " fill="#F5F6F7" transform="translate(114,84)"/>
<path d="M0 0 C-3.26545761 1.88391785 -6.28111761 2.49287967 -10 3 C-10.98043964 5.94131891 -11.11621202 7.82501665 -11.09765625 10.88671875 C-11.09443359 11.82451172 -11.09121094 12.76230469 -11.08789062 13.72851562 C-11.07951172 14.70498047 -11.07113281 15.68144531 -11.0625 16.6875 C-11.05798828 17.67556641 -11.05347656 18.66363281 -11.04882812 19.68164062 C-11.03704303 22.12115474 -11.02059011 24.56054689 -11 27 C-9.02 27.99 -7.04 28.98 -5 30 C-5 30.33 -5 30.66 -5 31 C-7.64 31 -10.28 31 -13 31 C-15.69922718 26.30384394 -15.40500456 21.85925631 -15.4375 16.5625 C-15.47037109 15.62083984 -15.50324219 14.67917969 -15.53710938 13.70898438 C-15.57392894 8.96595454 -15.58141151 6.74968996 -12.59765625 2.90234375 C-8.09005044 -0.39871494 -5.4883728 -0.08852214 0 0 Z " fill="#FCFCFD" transform="translate(66,85)"/>
<path d="M0 0 C0.89203125 0.00902344 1.7840625 0.01804687 2.703125 0.02734375 C3.37859375 0.03894531 4.0540625 0.05054687 4.75 0.0625 C4.75 2.3725 4.75 4.6825 4.75 7.0625 C1.80868109 8.04293964 -0.07501665 8.17871202 -3.13671875 8.16015625 C-4.07451172 8.15693359 -5.01230469 8.15371094 -5.97851562 8.15039062 C-6.95498047 8.14201172 -7.93144531 8.13363281 -8.9375 8.125 C-10.41959961 8.11823242 -10.41959961 8.11823242 -11.93164062 8.11132812 C-14.37115474 8.09954303 -16.81054689 8.08309011 -19.25 8.0625 C-18.92 7.4025 -18.59 6.7425 -18.25 6.0625 C-7.855 5.5675 -7.855 5.5675 2.75 5.0625 C2.75 4.4025 2.75 3.7425 2.75 3.0625 C-2.53 3.7225 -7.81 4.3825 -13.25 5.0625 C-8.38897661 0.20147661 -6.55513172 -0.08625173 0 0 Z " fill="#F1F3F2" transform="translate(152.25,98.9375)"/>
<path d="M0 0 C3.50068805 0.37241362 5.75408369 1.57696256 8.80859375 3.2578125 C10.96354614 4.32540359 12.99465281 4.88583359 15.3125 5.5 C17.3046875 6.1875 17.3046875 6.1875 18.9375 7.3125 C20.21254443 10.26301603 20.66998384 13.1223698 20.9375 16.3125 C15.74158388 15.87216813 12.27414919 15.42946661 7.9375 12.3125 C11.87420488 11.00026504 14.06238144 12.06953744 17.9375 13.3125 C16.72065216 10.27203871 16.72065216 10.27203871 14.18164062 8.33935547 C13.49263672 8.12166504 12.80363281 7.90397461 12.09375 7.6796875 C10.96646484 7.30650391 10.96646484 7.30650391 9.81640625 6.92578125 C9.03136719 6.68214844 8.24632813 6.43851562 7.4375 6.1875 C5.88377271 5.69000112 4.33160194 5.18760726 2.78125 4.6796875 C2.09224609 4.46425293 1.40324219 4.24881836 0.69335938 4.02685547 C-1.0625 3.3125 -1.0625 3.3125 -3.0625 1.3125 C-2.0625 0.3125 -2.0625 0.3125 0 0 Z " fill="#E9EAEC" transform="translate(86.0625,69.6875)"/>
<path d="M0 0 C0.97453125 0.00451172 1.9490625 0.00902344 2.953125 0.01367188 C5.34381434 0.02539094 7.7343744 0.04179781 10.125 0.0625 C10.785 1.7125 11.445 3.3625 12.125 5.0625 C11.63 4.7325 11.135 4.4025 10.625 4.0625 C7.03409106 2.62613642 3.98043873 2.93398538 0.125 3.0625 C0.455 3.7225 0.785 4.3825 1.125 5.0625 C-1.1875 5.75 -1.1875 5.75 -3.875 6.0625 C-4.308125 5.5675 -4.74125 5.0725 -5.1875 4.5625 C-6.8352063 2.77385279 -6.8352063 2.77385279 -9.57421875 2.98828125 C-10.56035156 3.11589844 -11.54648438 3.24351563 -12.5625 3.375 C-13.55636719 3.49488281 -14.55023438 3.61476563 -15.57421875 3.73828125 C-16.33347656 3.84527344 -17.09273438 3.95226562 -17.875 4.0625 C-17.545 3.0725 -17.215 2.0825 -16.875 1.0625 C-11.23973035 -0.14234722 -5.72963885 -0.0504643 0 0 Z " fill="#EDEEEF" transform="translate(98.875,110.9375)"/>
<path d="M0 0 C-0.33 0.66 -0.66 1.32 -1 2 C-3.60836941 2.80756296 -6.16069989 3.49859053 -8.8125 4.125 C-9.53759766 4.30675781 -10.26269531 4.48851563 -11.00976562 4.67578125 C-14.46362921 5.51633726 -17.42575854 6 -21 6 C-21.33 6.66 -21.66 7.32 -22 8 C-23.65391846 8.39171753 -25.32345271 8.72057545 -27 9 C-27.99 9.33 -28.98 9.66 -30 10 C-29.04971731 7.62429327 -28.46382084 6.27466521 -26.22680664 4.94995117 C-22.12073233 3.19830824 -17.7702792 2.33937745 -13.4375 1.3125 C-12.47908203 1.07466797 -11.52066406 0.83683594 -10.53320312 0.59179688 C-9.61345703 0.37201172 -8.69371094 0.15222656 -7.74609375 -0.07421875 C-6.48817017 -0.37718872 -6.48817017 -0.37718872 -5.20483398 -0.6862793 C-3 -1 -3 -1 0 0 Z " fill="#F1F2F4" transform="translate(150,111)"/>
<path d="M0 0 C1.49080078 0.43119141 1.49080078 0.43119141 3.01171875 0.87109375 C4.15060547 1.21333984 4.15060547 1.21333984 5.3125 1.5625 C5.3125 2.5525 5.3125 3.5425 5.3125 4.5625 C4.136875 4.211875 2.96125 3.86125 1.75 3.5 C-2.43441653 2.43338402 -5.48641062 2.68727305 -9.6875 3.5625 C-9.831875 4.18125 -9.97625 4.8 -10.125 5.4375 C-10.6875 7.5625 -10.6875 7.5625 -11.6875 9.5625 C-4.2625 10.5525 -4.2625 10.5525 3.3125 11.5625 C3.3125 11.8925 3.3125 12.2225 3.3125 12.5625 C1.58369018 12.61699838 -0.14562712 12.65551688 -1.875 12.6875 C-2.83792969 12.71070312 -3.80085938 12.73390625 -4.79296875 12.7578125 C-7.81562778 12.5538544 -9.95519985 11.83124632 -12.6875 10.5625 C-12.07671651 3.11094145 -12.07671651 3.11094145 -10.3125 0.625 C-6.46747661 -1.88905376 -4.19333384 -1.23333348 0 0 Z " fill="#EFF1F1" transform="translate(76.6875,66.4375)"/>
<path d="M0 0 C3.34448359 0.33444836 5.52337009 1.78872329 8 4 C8 4.66 8 5.32 8 6 C4.92463146 5.34099246 2.92264434 4.46132217 0 3 C-0.66 7.62 -1.32 12.24 -2 17 C-2.66 16.67 -3.32 16.34 -4 16 C-4.37804878 6.3597561 -4.37804878 6.3597561 -2 2 C-1.34 1.34 -0.68 0.68 0 0 Z " fill="#F2F5F7" transform="translate(151,53)"/>
<path d="M0 0 C0.66 0 1.32 0 2 0 C3.90818386 6.99667417 1.52699624 12.39510424 -1 19 C-1.66 19 -2.32 19 -3 19 C-3.66 20.32 -4.32 21.64 -5 23 C-4.14072079 18.13075116 -2.60846148 13.62256394 -0.875 9 C0.04338284 5.85125882 0.15530533 3.26141197 0 0 Z " fill="#F3F4F6" transform="translate(158,60)"/>
<path d="M0 0 C0.33 0 0.66 0 1 0 C1.33 6.93 1.66 13.86 2 21 C3.98 21.99 5.96 22.98 8 24 C8 24.33 8 24.66 8 25 C5.36 25 2.72 25 0 25 C-0.93714922 21.88248002 -1.05686895 19.25850091 -0.87890625 16.015625 C-0.83056641 15.08105469 -0.78222656 14.14648438 -0.73242188 13.18359375 C-0.67634766 12.21550781 -0.62027344 11.24742188 -0.5625 10.25 C-0.51029297 9.26644531 -0.45808594 8.28289062 -0.40429688 7.26953125 C-0.27488563 4.84601151 -0.13993095 2.42293136 0 0 Z " fill="#EFF1F0" transform="translate(53,91)"/>
<path d="M0 0 C0.33 0 0.66 0 1 0 C1 7.26 1 14.52 1 22 C0.01 21.67 -0.98 21.34 -2 21 C-2.0543965 18.62468606 -2.09385864 16.25064117 -2.125 13.875 C-2.14175781 13.20984375 -2.15851563 12.5446875 -2.17578125 11.859375 C-2.21847278 7.50483944 -1.59996217 4.04399886 0 0 Z " fill="#F6F7F7" transform="translate(97,149)"/>
<path d="M0 0 C1.66611905 -0.042721 3.33382885 -0.04063832 5 0 C6 1 6 1 6.09765625 3.50390625 C6.08605469 4.51324219 6.07445313 5.52257812 6.0625 6.5625 C6.05347656 7.57441406 6.04445313 8.58632812 6.03515625 9.62890625 C6.02355469 10.41136719 6.01195313 11.19382812 6 12 C3.8480563 8.77208445 3.79913557 7.71599191 4 4 C3.01 3.67 2.02 3.34 1 3 C1 3.66 1 4.32 1 5 C0.34 5 -0.32 5 -1 5 C-0.67 3.35 -0.34 1.7 0 0 Z " fill="#EAECEE" transform="translate(109,70)"/>
<path d="M0 0 C0.33 0 0.66 0 1 0 C1.05428973 2.22889496 1.09292338 4.45817471 1.125 6.6875 C1.14820312 7.92886719 1.17140625 9.17023438 1.1953125 10.44921875 C1.01032021 13.81237857 0.45767895 15.9985587 -1 19 C-1.33 19 -1.66 19 -2 19 C-1.85820962 16.77057252 -1.71140302 14.54146372 -1.5625 12.3125 C-1.48128906 11.07113281 -1.40007812 9.82976562 -1.31640625 8.55078125 C-1.05508683 5.61819663 -0.65201621 2.86558383 0 0 Z " fill="#F1F2F2" transform="translate(88,142)"/>
<path d="M0 0 C0.33 0.99 0.66 1.98 1 3 C0.34 2.67 -0.32 2.34 -1 2 C-0.67 1.34 -0.34 0.68 0 0 Z M-2 3 C-1.34 3.66 -0.68 4.32 0 5 C-0.171875 7.56640625 -0.171875 7.56640625 -0.75 10.5625 C-1.02070312 12.04943359 -1.02070312 12.04943359 -1.296875 13.56640625 C-1.52890625 14.36949219 -1.7609375 15.17257813 -2 16 C-2.99 16.495 -2.99 16.495 -4 17 C-4.05437607 15.41705218 -4.09296271 13.83355744 -4.125 12.25 C-4.14820312 11.36828125 -4.17140625 10.4865625 -4.1953125 9.578125 C-3.99139502 6.8864142 -3.36551721 5.30095026 -2 3 Z " fill="#F5F5F6" transform="translate(80,141)"/>
<path d="M0 0 C0.66 0 1.32 0 2 0 C1.25 5.75 1.25 5.75 -1 8 C-4.125 8.125 -4.125 8.125 -7 8 C-6.67 6.68 -6.34 5.36 -6 4 C-4.35 4.33 -2.7 4.66 -1 5 C-0.67 3.35 -0.34 1.7 0 0 Z " fill="#F2F6F7" transform="translate(149,90)"/>
<path d="M0 0 C-3.40431947 2.26954631 -5.16524202 2.36549949 -9.1875 2.625 C-10.27417969 2.69976562 -11.36085938 2.77453125 -12.48046875 2.8515625 C-13.31191406 2.90054688 -14.14335938 2.94953125 -15 3 C-14.67 2.01 -14.34 1.02 -14 0 C-8.97874074 -0.77916092 -5.02296004 -1.13016601 0 0 Z " fill="#FCFDFC" transform="translate(97,114)"/>
<path d="M0 0 C0.66 0.33 1.32 0.66 2 1 C2.125 3.875 2.125 3.875 2 7 C0 9 0 9 -2.625 9.125 C-3.40875 9.08375 -4.1925 9.0425 -5 9 C-5.33 8.01 -5.66 7.02 -6 6 C-4.02 6 -2.04 6 0 6 C0 4.02 0 2.04 0 0 Z " fill="#E6EAEC" transform="translate(110,84)"/>
<path d="M0 0 C0.66 0 1.32 0 2 0 C2.33 1.98 2.66 3.96 3 6 C3.66 6 4.32 6 5 6 C5 7.98 5 9.96 5 12 C4.34 11.67 3.68 11.34 3 11 C2.25881795 8.68925595 1.59793673 6.35188447 1 4 C0.79375 3.195625 0.5875 2.39125 0.375 1.5625 C0.25125 1.046875 0.1275 0.53125 0 0 Z " fill="#F5F6F6" transform="translate(113,132)"/>
<path d="M0 0 C1 2 1 2 0.22265625 4.3828125 C-0.16019531 5.28773438 -0.54304688 6.19265625 -0.9375 7.125 C-1.31777344 8.03507813 -1.69804688 8.94515625 -2.08984375 9.8828125 C-2.39019531 10.58148438 -2.69054687 11.28015625 -3 12 C-3.66 11.67 -4.32 11.34 -5 11 C-4.55123384 9.35153231 -4.09069512 7.70626545 -3.625 6.0625 C-3.36976562 5.14597656 -3.11453125 4.22945312 -2.8515625 3.28515625 C-2 1 -2 1 0 0 Z " fill="#F4F5F5" transform="translate(86,127)"/>
<path d="M0 0 C1.36125 0.37125 1.36125 0.37125 2.75 0.75 C2.42 1.41 2.09 2.07 1.75 2.75 C-0.31640625 3.1640625 -0.31640625 3.1640625 -2.8125 3.375 C-3.63878906 3.44976562 -4.46507812 3.52453125 -5.31640625 3.6015625 C-6.27353516 3.67503906 -6.27353516 3.67503906 -7.25 3.75 C-4.05 -0.31153846 -4.05 -0.31153846 0 0 Z " fill="#EAEBEC" transform="translate(146.25,100.25)"/>
<path d="M0 0 C7.50769231 0.49230769 7.50769231 0.49230769 10 3.0625 C10.33 3.701875 10.66 4.34125 11 5 C6.62886504 4.49172849 3.61004338 3.54826592 0 1 C0 0.67 0 0.34 0 0 Z " fill="#EFF1F2" transform="translate(94,81)"/>
<path d="M0 0 C2.98704569 0.49784095 4.39324263 1.26216175 7 3 C7 3.66 7 4.32 7 5 C3.64404172 4.40072174 1.62198774 3.15377564 -1 1 C-0.67 0.67 -0.34 0.34 0 0 Z " fill="#ECEEEC" transform="translate(152,54)"/>
</svg>
